<svg xmlns="http://www.w3.org/2000/svg" viewBox="0 0 64 64">
  <circle cx="32" cy="32" r="29" fill="none" stroke="#E4440A" stroke-width="1.2"/>
  <circle cx="32" cy="32" r="22" fill="#E4440A"/>
  <path fill="#F7F4F1" d="M16.65 42.80Q15.89 42.80 15.32 40.52L15.32 40.52Q14.82 38.50 14.50 35.52Q14.18 32.54 13.84 27.98L13.84 27.98Q13.65 25.01 13.30 21.63L13.30 21.63Q13.04 18.82 12.66 18.02L12.66 18.02Q13.00 17.34 13.76 17.34L13.76 17.34Q14.98 17.34 14.98 19.85L14.98 19.85Q14.98 22.81 15.77 28.51L15.77 28.51Q16.57 34.17 16.69 36.76L16.69 36.76L16.88 35.46Q17.26 32.92 17.54 30.66Q17.83 28.40 18.02 25.77L18.02 25.77Q18.28 22.85 18.28 20.00L18.28 20.00L19.31 19.54Q19.80 19.54 20.12 19.79Q20.45 20.04 20.45 20.49L20.45 20.49L20.45 20.80Q21.06 22.92 21.45 25.45Q21.85 27.98 22.16 31.40L22.16 31.40Q22.39 34.02 22.69 36.30L22.69 36.30Q23.41 31.21 23.41 23.76L23.41 23.76Q23.41 22.58 23.72 20.87L23.72 20.87Q23.98 19.12 23.98 18.02L23.98 18.02Q23.87 17.68 23.87 17.38L23.87 17.38Q23.87 16.46 25.01 16.46L25.01 16.46Q25.46 16.46 25.73 16.69Q26.00 16.92 26.00 17.34L26.00 17.34L26.00 17.91Q26.00 18.48 25.88 18.90L25.88 18.90L25.88 19.09Q25.39 20.61 25.39 22.58L25.39 22.58L25.39 25.36Q25.39 27.75 24.82 32.50L24.82 32.50Q24.21 37.14 24.21 39.42L24.21 39.42L24.21 40.10Q24.21 40.97 24.02 41.58L24.02 41.58Q23.79 42.34 22.92 42.34L22.92 42.34Q22.31 42.34 21.99 41.94Q21.66 41.54 21.66 40.94L21.66 40.94Q21.66 37.86 21.02 32.96L21.02 32.96Q20.68 30.75 20.30 28.51L20.30 28.51L19.69 24.52Q19.54 25.62 19.54 26.69L19.54 26.69Q19.54 28.81 19.23 32.31Q18.93 35.81 18.28 39.11L18.28 39.11Q17.56 42.80 16.65 42.80L16.65 42.80ZM35.12 42.30Q34.05 42.30 33.18 41.91Q32.30 41.51 31.70 40.86L31.70 40.86Q31.20 40.33 30.78 39.30Q30.37 38.28 30.18 37.33L30.18 37.33Q29.99 36.60 29.87 35.24Q29.76 33.87 29.72 32.88L29.72 32.88L29.72 30.68L29.72 29.16Q29.72 26.95 29.80 25.55L29.80 25.55Q29.87 23.84 30.29 21.94L30.29 21.94Q30.63 20.23 31.47 18.93L31.47 18.93Q32.27 17.64 33.71 17.15L33.71 17.15Q34.39 16.88 35.31 16.88L35.31 16.88Q36.94 16.88 36.94 17.83L36.94 17.83Q36.94 18.29 36.58 18.57Q36.22 18.86 35.72 18.86L35.72 18.86Q35.50 18.86 35.31 18.82L35.31 18.82Q35.15 18.78 34.93 18.78L34.93 18.78Q34.28 18.78 33.79 19.47Q33.29 20.15 32.95 21.37L32.95 21.37Q32.34 23.72 32.11 26.50L32.11 26.50Q31.96 29.08 31.96 30.33L31.96 30.33Q31.96 31.63 32.08 33.87L32.08 33.87Q32.23 35.96 32.72 37.52L32.72 37.52Q32.99 38.43 33.35 38.98Q33.71 39.53 34.28 39.91L34.28 39.91Q34.93 40.33 35.61 40.33L35.61 40.33Q37.43 40.33 37.43 34.25L37.43 34.25L37.43 32.50Q37.17 32.39 36.56 32.39L36.56 32.39L36.22 32.39L35.80 32.39Q34.47 32.39 34.47 31.51L34.47 31.51Q34.47 30.98 34.83 30.70Q35.19 30.41 35.76 30.41L35.76 30.41L35.76 30.45L36.29 30.45Q39.71 30.45 39.71 31.63L39.71 31.63Q39.71 31.97 39.52 32.99L39.52 32.99Q39.30 33.91 39.30 34.36L39.30 34.36Q39.30 35.01 39.41 36.38L39.41 36.38L39.49 38.39Q39.49 40.21 38.21 41.26Q36.94 42.30 35.12 42.30L35.12 42.30ZM50.01 42Q48.72 42 48.72 35.73L48.72 35.73L48.76 33.56L48.80 31.82L48.80 31.70L48.80 31.32Q48.83 31.02 48.83 30.60L48.83 30.60Q48.83 30.52 48.72 30.41L48.72 30.41Q48.61 30.30 48.61 30.22L48.61 30.22L48.61 30.18Q48.42 30.26 47.92 30.26L47.92 30.26Q47.43 30.26 46.71 30.11L46.71 30.11Q46.48 30.07 45.49 29.92L45.49 29.92L45.49 34.29Q45.49 35.27 45.60 37.40L45.60 37.40Q45.72 39.49 45.72 40.52L45.72 40.52Q45.72 41.09 45.41 41.51Q45.11 41.92 44.62 41.92L44.62 41.92Q43.89 41.92 43.59 40.52L43.59 40.52Q43.29 39.07 43.29 36.76L43.29 36.76L43.36 33.68Q43.40 32.39 43.40 30.94L43.40 30.94L43.40 30.30L43.40 29.76Q43.40 29.16 43.36 28.97L43.36 28.97L43.36 28.78L43.48 26.57Q43.48 25.13 43.36 22.28L43.36 22.28Q43.25 19.43 43.25 17.98L43.25 17.98Q43.25 17.53 43.55 17.19Q43.86 16.84 44.31 16.84L44.31 16.84Q45.53 16.84 45.53 19.12L45.53 19.12L45.45 23.84Q45.38 25.96 45.38 28.59L45.38 28.59Q45.95 28.78 47.43 28.78L47.43 28.78L48.83 28.78Q48.91 28.55 48.91 28.32L48.91 28.32Q48.91 26.50 48.68 22.92L48.68 22.92Q48.42 19.58 48.42 17.49L48.42 17.49Q48.42 17.07 48.74 16.79Q49.06 16.50 49.52 16.84L49.52 16.50Q49.78 16.50 50.28 16.69L50.28 16.69L50.62 16.84Q50.62 22.24 51 31.25L51 31.25L51.34 40.86Q51.34 41.39 50.94 41.70Q50.54 42 50.01 42L50.01 42Z"/>
</svg>
